<?xml version="1.0" encoding="UTF-8"?>
<svg xmlns="http://www.w3.org/2000/svg" xmlns:xlink="http://www.w3.org/1999/xlink" width="24pt" height="24pt" viewBox="0 0 24 24" version="1.1">
<defs>
<radialGradient id="radial0" gradientUnits="userSpaceOnUse" cx="85.994629" cy="84.65625" fx="85.994629" fy="84.65625" r="82.710503" gradientTransform="matrix(0.139535,0,0,0.139535,0,0)">
<stop offset="0" style="stop-color:rgb(95.686275%,91.372549%,76.470588%);stop-opacity:1;"/>
<stop offset="0.219" style="stop-color:rgb(97.254902%,93.333333%,80.392157%);stop-opacity:1;"/>
<stop offset="0.644" style="stop-color:rgb(99.215686%,95.686275%,86.27451%);stop-opacity:1;"/>
<stop offset="1" style="stop-color:rgb(100%,96.470588%,88.235294%);stop-opacity:1;"/>
</radialGradient>
<linearGradient id="linear0" gradientUnits="userSpaceOnUse" x1="79.01519" y1="166.453003" x2="79.01519" y2="-109.472618" gradientTransform="matrix(0.139535,0,0,0.139535,0,0)">
<stop offset="0" style="stop-color:rgb(100%,34.509804%,25.098039%);stop-opacity:1;"/>
<stop offset="0.007" style="stop-color:rgb(100%,34.509804%,25.098039%);stop-opacity:1;"/>
<stop offset="0.989" style="stop-color:rgb(98.039216%,32.156863%,54.901961%);stop-opacity:1;"/>
<stop offset="1" style="stop-color:rgb(98.039216%,32.156863%,54.901961%);stop-opacity:1;"/>
</linearGradient>
<linearGradient id="linear1" gradientUnits="userSpaceOnUse" x1="32.647751" y1="175.031494" x2="32.647751" y2="48.880249" gradientTransform="matrix(0.139535,0,0,0.139535,0,0)">
<stop offset="0" style="stop-color:rgb(99.607843%,66.666667%,32.54902%);stop-opacity:1;"/>
<stop offset="0.612" style="stop-color:rgb(100%,80.392157%,28.627451%);stop-opacity:1;"/>
<stop offset="1" style="stop-color:rgb(100%,87.058824%,26.666667%);stop-opacity:1;"/>
</linearGradient>
<linearGradient id="linear2" gradientUnits="userSpaceOnUse" x1="79.980003" y1="90.974564" x2="79.980003" y2="196.02356" gradientTransform="matrix(0.139535,0,0,0.139535,0,0)">
<stop offset="0" style="stop-color:rgb(25.882353%,84.313725%,47.058824%);stop-opacity:1;"/>
<stop offset="0.428" style="stop-color:rgb(23.921569%,79.215686%,46.27451%);stop-opacity:1;"/>
<stop offset="1" style="stop-color:rgb(20.392157%,69.411765%,44.313725%);stop-opacity:1;"/>
</linearGradient>
<linearGradient id="linear3" gradientUnits="userSpaceOnUse" x1="123.625" y1="167.597885" x2="123.625" y2="81.718811" gradientTransform="matrix(0.139535,0,0,0.139535,0,0)">
<stop offset="0" style="stop-color:rgb(8.235294%,36.078431%,87.058824%);stop-opacity:1;"/>
<stop offset="0.278" style="stop-color:rgb(12.156863%,49.803922%,89.803922%);stop-opacity:1;"/>
<stop offset="0.569" style="stop-color:rgb(15.294118%,61.176471%,92.156863%);stop-opacity:1;"/>
<stop offset="0.82" style="stop-color:rgb(17.254902%,68.627451%,93.72549%);stop-opacity:1;"/>
<stop offset="1" style="stop-color:rgb(18.039216%,70.980392%,94.117647%);stop-opacity:1;"/>
</linearGradient>
</defs>
<g id="surface1">
<path style=" stroke:none;fill-rule:nonzero;fill:url(#radial0);" d="M 23.988281 11.273438 C 23.878906 12.34375 22.917969 13.125 21.839844 13.125 L 19.875 13.125 C 19.417969 13.125 19.058594 13.53125 19.136719 14.003906 C 19.195312 14.371094 19.542969 14.625 19.917969 14.625 L 21.1875 14.625 C 22.171875 14.625 22.96875 15.480469 22.867188 16.484375 C 22.777344 17.363281 21.992188 18 21.109375 18 L 19.125 18 C 18.667969 18 18.308594 18.40625 18.386719 18.878906 C 18.445312 19.246094 18.792969 19.5 19.167969 19.5 L 20.4375 19.5 C 20.902344 19.5 21.328125 19.6875 21.628906 19.996094 C 21.9375 20.296875 22.125 20.722656 22.125 21.1875 C 22.125 22.121094 21.371094 22.875 20.4375 22.875 L 3.9375 22.875 C 3.367188 22.875 2.851562 22.640625 2.476562 22.273438 C 2.109375 21.898438 1.875 21.382812 1.875 20.8125 C 1.875 19.671875 2.796875 18.75 3.9375 18.75 L 5.25 18.75 C 5.707031 18.75 6.066406 18.34375 5.988281 17.871094 C 5.929688 17.503906 5.585938 17.25 5.210938 17.25 L 2.0625 17.25 C 1.078125 17.25 0.28125 16.394531 0.382812 15.390625 C 0.472656 14.511719 1.257812 13.875 2.140625 13.875 L 4.875 13.875 C 5.515625 13.875 6.035156 13.339844 6 12.691406 C 5.964844 12.082031 5.417969 11.625 4.808594 11.625 L 1.6875 11.625 C 0.703125 11.625 -0.09375 10.769531 0.0078125 9.765625 C 0.0976562 8.886719 0.890625 8.25 1.765625 8.25 L 5.4375 8.25 C 5.902344 8.25 6.328125 8.0625 6.628906 7.753906 C 6.9375 7.453125 7.125 7.027344 7.125 6.5625 C 7.125 5.628906 6.371094 4.875 5.4375 4.875 L 3.1875 4.875 C 2.617188 4.875 2.101562 4.640625 1.726562 4.273438 C 1.359375 3.898438 1.125 3.382812 1.125 2.8125 C 1.125 1.671875 2.046875 0.75 3.1875 0.75 L 21.1875 0.75 C 22.390625 0.75 23.363281 1.796875 23.238281 3.023438 C 23.128906 4.09375 22.542969 4.875 21.464844 4.875 L 20.8125 4.875 C 19.671875 4.875 18.75 5.796875 18.75 6.9375 C 18.75 7.507812 18.984375 8.023438 19.355469 8.398438 C 19.726562 8.765625 20.242188 9 20.8125 9 L 21.9375 9 C 23.140625 9 24.113281 10.046875 23.988281 11.273438 Z M 23.988281 11.273438 "/>
<path style=" stroke:none;fill-rule:nonzero;fill:url(#linear0);" d="M 17.796875 5.8125 L 17.285156 6.367188 C 16.78125 6.910156 15.972656 6.992188 15.351562 6.59375 C 14.335938 5.933594 12.941406 5.417969 11.226562 5.703125 C 9.375 6.015625 7.789062 7.148438 6.863281 8.691406 L 3.851562 6.414062 C 5.621094 3.683594 8.699219 1.875 12.1875 1.875 C 14.0625 1.875 15.914062 2.460938 17.539062 3.546875 C 18.304688 4.058594 18.421875 5.140625 17.796875 5.8125 Z M 17.796875 5.8125 "/>
<path style=" stroke:none;fill-rule:nonzero;fill:url(#linear1);" d="M 6.003906 11.589844 C 5.96875 12.515625 6.140625 13.402344 6.480469 14.203125 L 3.402344 16.46875 C 2.894531 15.527344 2.539062 14.492188 2.371094 13.386719 C 1.972656 10.808594 2.570312 8.371094 3.851562 6.414062 L 6.863281 8.691406 C 6.347656 9.550781 6.039062 10.542969 6.003906 11.589844 Z M 6.003906 11.589844 "/>
<path style=" stroke:none;fill-rule:nonzero;fill:url(#linear2);" d="M 18.917969 19.230469 C 17.210938 20.757812 14.941406 21.695312 12.410156 21.746094 C 8.589844 21.824219 5.121094 19.699219 3.402344 16.46875 L 6.480469 14.203125 C 7.417969 16.429688 9.628906 18 12.1875 18 C 13.664062 18 15.007812 17.519531 16.0625 16.710938 Z M 18.917969 19.230469 "/>
<path style=" stroke:none;fill-rule:nonzero;fill:url(#linear3);" d="M 22.125 11.988281 C 22.128906 14.886719 20.902344 17.457031 18.917969 19.230469 L 16.0625 16.710938 C 16.847656 16.105469 17.476562 15.320312 17.875 14.402344 C 17.984375 14.15625 17.800781 13.875 17.53125 13.875 L 13.875 13.875 C 13.046875 13.875 12.375 13.203125 12.375 12.375 L 12.375 11.625 C 12.375 10.796875 13.046875 10.125 13.875 10.125 L 20.25 10.125 C 21.28125 10.125 22.125 10.957031 22.125 11.988281 Z M 22.125 11.988281 "/>
</g>
</svg>
